<?xml version="1.0" encoding="UTF-8"?>
<svg version="1.1" xmlns="http://www.w3.org/2000/svg" width="1920" height="1080">
<path d="M0 0 C2.67657753 2.05179425 3.84766703 3.25932013 4.53344727 6.59375 C4.45355512 14.45355286 2.8439303 20.7308531 -0.0625 28 C-0.72536011 29.72210693 -0.72536011 29.72210693 -1.40161133 31.47900391 C-6.08401902 43.5090059 -11.09583072 55.41025889 -16.1027832 67.30793762 C-20.26130624 77.19120667 -24.30734222 87.11623146 -28.3125 97.0625 C-33.00988325 108.72514042 -37.80840304 120.33964043 -42.69897461 131.92260742 C-56.99169432 165.7742251 -69.99239629 200.04041116 -82.18939209 234.699646 C-82.97321302 236.92398354 -83.76072348 239.14697934 -84.54931641 241.36962891 C-97.01401761 276.55323246 -107.4970529 312.33393505 -117.625 348.25 C-117.96688354 349.4581134 -118.30876709 350.66622681 -118.66101074 351.91094971 C-121.79576326 363.01065632 -124.92091264 374.10578965 -127.4609375 385.359375 C-127.62357086 386.07353577 -127.78620422 386.78769653 -127.95376587 387.52349854 C-128.72083757 391.07126631 -129.17268006 394.369336 -129 398 C-112.7192077 380.55342258 -99.12771396 360.79421468 -85.21484375 341.4609375 C-83.06989196 338.4805697 -80.91593592 335.50706358 -78.75390625 332.5390625 C-72.65298289 324.15269644 -66.69896398 315.68678482 -60.875 307.10571289 C-57.17367752 301.66883941 -53.37261875 296.31597531 -49.5 291 C-43.3388156 282.53695701 -37.4195587 273.92181705 -31.5390625 265.26220703 C-29.16346702 261.77041329 -26.76974634 258.29117515 -24.375 254.8125 C-23.69703369 253.82660889 -23.69703369 253.82660889 -23.00537109 252.82080078 C-20.85235514 249.69005682 -18.69731289 246.56073148 -16.5390625 243.43359375 C-5.46974144 227.38264616 5.43531744 211.21892095 16.3671875 195.07421875 C26.5526388 180.0320338 36.74474069 164.9947417 47 150 C47.48581543 149.28924316 47.97163086 148.57848633 48.47216797 147.84619141 C56.22930806 136.5042508 64.10092109 125.24342879 72 114 C72.78358887 112.88359131 72.78358887 112.88359131 73.58300781 111.74462891 C79.15148839 103.81446798 84.762082 95.91653253 90.4375 88.0625 C90.97624756 87.31669678 91.51499512 86.57089355 92.07006836 85.80249023 C94.81023704 82.01366043 97.56016945 78.23238333 100.32421875 74.4609375 C108.98436631 62.61538954 117.02064867 50.48507448 124.703125 37.984375 C137.82746805 16.67331684 137.82746805 16.67331684 145 9 C145.51046875 8.43667969 146.0209375 7.87335938 146.546875 7.29296875 C148.8587193 5.2359245 150.97763026 5.12593207 154 5 C155.9375 6 155.9375 6 157 8 C156.69596768 14.24066344 154.38255079 18.81671803 151.4375 24.25 C150.95788818 25.14968506 150.47827637 26.04937012 149.98413086 26.97631836 C143.38042282 39.20775058 136.16937702 51.09515754 129 63 C127.92150575 64.7966534 126.84335226 66.59351142 125.765625 68.390625 C125.27126953 69.21449707 124.77691406 70.03836914 124.26757812 70.88720703 C123.2999386 72.50004782 122.33248971 74.11300299 121.36523438 75.72607422 C120.88892578 76.52029785 120.41261719 77.31452148 119.921875 78.1328125 C119.44556641 78.92719727 118.96925781 79.72158203 118.47851562 80.54003906 C117.46683818 82.22327254 116.45238037 83.90483719 115.43554688 85.58496094 C107.19386429 99.2092734 99.59751806 113.07274411 92.38818359 127.27050781 C91.22437614 129.55882426 90.04816936 131.83975522 88.86328125 134.1171875 C75.57558471 159.86081595 64.80541184 186.96543402 53.90362549 213.7779541 C53.09761324 215.7599657 52.2889918 217.74089119 51.47998047 219.72167969 C39.47634496 249.29150339 29.84858021 280.07926126 22 311 C21.80641907 311.7573645 21.61283813 312.514729 21.41339111 313.29504395 C11.58196358 351.80961532 5.47726091 390.30975063 1.23565674 429.80975342 C1.02493667 431.76823303 0.80942072 433.72619526 0.59326172 435.68408203 C-0.85156836 449.11023154 -1.21335647 462.50755801 -1.3125 476 C-1.32221832 476.77187653 -1.33193665 477.54375305 -1.34194946 478.33901978 C-1.49891939 492.97710097 -1.45094089 511.89329446 8.25 523.75 C10.49051907 526.63066738 10.33099287 528.44182669 10 532 C8.3125 532.75 8.3125 532.75 6 533 C-2.49031931 528.30798143 -6.4380766 516.81997578 -9 508 C-12.84945549 492.94734891 -12.42355686 477.68361949 -12.3225708 462.26037598 C-12.30928755 459.52628125 -12.31438627 456.79235402 -12.31943417 454.05824184 C-12.34462331 435.97364898 -11.61673578 418.01999746 -10 400 C-9.92683563 399.18359039 -9.85367126 398.36718079 -9.77828979 397.52603149 C-2.16118951 315.1942224 24.70913368 236.00469212 78 122 C73.67986444 127.68120738 69.51945951 133.4582709 65.4375 139.3125 C64.82962646 140.18277832 64.22175293 141.05305664 63.59545898 141.94970703 C57.88955905 150.13267273 52.24974365 158.35995915 46.63330078 166.60449219 C45.04879747 168.92843038 43.46050204 171.24972696 41.87109375 173.5703125 C37.90121782 179.37148796 33.9478666 185.18383013 30 191 C29.4864093 191.7565387 28.9728186 192.51307739 28.44366455 193.2925415 C8.03961738 223.3450839 8.03961738 223.3450839 -11.7109375 253.828125 C-15.26969504 259.45158444 -18.95381473 264.98580546 -22.66333008 270.51049805 C-26.07720247 275.59957494 -29.42544099 280.72722639 -32.75 285.875 C-47.15509127 308.13432277 -61.88509205 330.21631347 -77 352 C-77.54736816 352.79148437 -78.09473633 353.58296875 -78.65869141 354.3984375 C-90.73760033 371.84914811 -103.05114328 389.07413273 -116.65332031 405.37890625 C-117.81114019 406.77265606 -118.95040784 408.18178053 -120.0859375 409.59375 C-124.68162301 415.16679849 -129.36639129 419.44572071 -136.6875 420.5625 C-140.63694692 419.8918392 -142.25912161 418.89750001 -145 416 C-160.07905747 384.15471779 -107.97159907 244.84836882 -95.41943359 209.52880859 C-78.58826681 162.59190351 -58.73813753 116.76863433 -39 71 C-41.32376815 73.8672076 -43.57681877 76.73726181 -45.65234375 79.7890625 C-46.16587402 80.54251953 -46.6794043 81.29597656 -47.20849609 82.07226562 C-47.77906738 82.91466797 -48.34963867 83.75707031 -48.9375 84.625 C-49.56736816 85.55248047 -50.19723633 86.47996094 -50.84619141 87.43554688 C-52.77143315 90.27367592 -54.69399098 93.11359432 -56.61553955 95.95422363 C-58.12144943 98.17946224 -59.62877037 100.40374099 -61.13623047 102.62792969 C-78.29579748 127.95202021 -95.27219611 153.38859701 -112 179 C-112.71124023 180.08893555 -113.42248047 181.17787109 -114.15527344 182.29980469 C-117.33553888 187.17403158 -120.50680528 192.05396671 -123.66748047 196.94091797 C-125.01681114 199.0259775 -126.36939025 201.1088991 -127.72265625 203.19140625 C-135.22478404 214.74567992 -142.62261266 226.36577537 -150 238 C-150.51175781 238.80695313 -151.02351562 239.61390625 -151.55078125 240.4453125 C-165.54223163 262.52153236 -179.35448495 284.70833455 -193 307 C-193.68852051 308.12422363 -194.37704102 309.24844727 -195.08642578 310.40673828 C-203.38158363 323.9605886 -211.5495064 337.5803552 -219.5541687 351.30783081 C-226.31730513 362.90208698 -233.2572013 374.38298025 -240.25 385.83984375 C-242.83752381 390.07986603 -245.3958954 394.33469441 -247.9206543 398.61230469 C-260.10024499 419.20823774 -260.10024499 419.20823774 -268 425 C-271.625 425.5625 -271.625 425.5625 -275 425 C-277.36497439 423.13291495 -278.66030715 421.67938569 -280 419 C-283.95285742 384.72307923 -258.00681259 346.85591979 -241.47265625 318.90625 C-238.04628188 313.10732893 -234.73268896 307.24918376 -231.4375 301.375 C-225.73556752 291.23870664 -219.86376698 281.21288305 -213.91357422 271.22070312 C-212.13317456 268.22414376 -210.35950129 265.22374378 -208.58833313 262.22172546 C-200.07499075 247.79251183 -191.54115115 233.39622616 -182.47753906 219.30322266 C-180.84845069 216.76376138 -179.23194906 214.21656285 -177.6171875 211.66796875 C-140.06165898 152.41345981 -140.06165898 152.41345981 -120.515625 129.91796875 C-118.08606208 127.09982667 -115.75771097 124.22087633 -113.4375 121.3125 C-105.3024952 111.37132184 -95.00468592 99.13174069 -82 96 C-78.8125 97.4375 -78.8125 97.4375 -76 99 C-71.96802607 97.65600869 -70.9895394 95.11610389 -68.9375 91.625 C-64.23137688 83.85713813 -59.24644045 76.29068234 -54.1875 68.75 C-52.60719542 66.39121166 -51.02784406 64.03178751 -49.44921875 61.671875 C-49.06406601 61.09613739 -48.67891327 60.52039978 -48.28208923 59.92721558 C-44.97707787 54.97980675 -41.72808013 49.99781538 -38.5 45 C-31.08901104 33.53289946 -23.49068105 22.19094764 -15.90014648 10.84228516 C-14.5566279 8.8326175 -13.24099611 6.80417426 -11.94555664 4.76318359 C-8.52624872 -0.09310039 -5.73552833 -0.60373982 0 0 Z M-38 67 C-37 69 -37 69 -37 69 Z M-88 116 C-93.39809835 121.08566822 -98.09062393 126.60639604 -102.71386719 132.39746094 C-104.07167009 134.08930191 -105.44489406 135.76776824 -106.8203125 137.4453125 C-113.74598544 145.93466272 -120.16452815 154.69570205 -126.40087891 163.70068359 C-128.08192987 166.1178039 -129.77932854 168.52276215 -131.48046875 170.92578125 C-138.3701532 180.67234798 -145.05109107 190.51425781 -151.45849609 200.58398438 C-153.18887981 203.29603335 -154.93184219 205.99977346 -156.67578125 208.703125 C-177.4473216 240.9471245 -197.05618687 273.88298879 -216.29199219 307.06054688 C-218.06521742 310.1122381 -219.84864621 313.15781939 -221.6328125 316.203125 C-228.23511123 327.50839555 -234.6817586 338.8917172 -240.90362549 350.4105835 C-241.63110163 351.75550111 -242.36182849 353.09866574 -243.09588623 354.44000244 C-244.11594957 356.30749942 -245.12232808 358.18171514 -246.125 360.05859375 C-246.70507812 361.13423584 -247.28515625 362.20987793 -247.8828125 363.31811523 C-249.35579058 366.02715722 -249.35579058 366.02715722 -248 369 C-247.5373877 368.20529297 -247.07477539 367.41058594 -246.59814453 366.59179688 C-230.53185624 339.01765539 -230.53185624 339.01765539 -222.25292969 325.98779297 C-220.31061421 322.90627842 -218.40698804 319.80114126 -216.49829102 316.69873047 C-205.21146146 298.36887853 -193.58341644 280.27156945 -181.60205078 262.38818359 C-176.84580759 255.28621143 -172.12373471 248.16279062 -167.4296875 241.01953125 C-166.84795273 240.13436325 -166.26621796 239.24919525 -165.66685486 238.33720398 C-164.458108 236.49788513 -163.24936271 234.65856524 -162.0406189 232.81924438 C-152.21352085 217.86877842 -142.32025125 202.96759825 -132.29318237 188.15042114 C-126.85156091 180.10740845 -121.42482136 172.05434946 -116 164 C-115.33117798 163.00768372 -114.66235596 162.01536743 -113.9732666 160.99298096 C-109.83310061 154.84706927 -105.70776878 148.69160582 -101.60083008 142.5234375 C-100.29104703 140.5606241 -98.97680106 138.60078098 -97.65795898 136.64404297 C-95.83550763 133.9384377 -94.02917974 131.22275151 -92.2265625 128.50390625 C-91.40552536 127.29614281 -91.40552536 127.29614281 -90.56790161 126.0639801 C-90.07965912 125.3204277 -89.59141663 124.57687531 -89.08837891 123.81079102 C-88.65844635 123.167715 -88.22851379 122.52463898 -87.78555298 121.86207581 C-86.79778439 119.52066786 -87.15938952 118.34885551 -88 116 Z M-252 372 C-251 374 -251 374 -251 374 Z " fill="#808182" transform="translate(345,299)"/>
<path d="M0 0 C14.85 0 29.7 0 45 0 C45 109.23 45 218.46 45 331 C30.15 331 15.3 331 0 331 C-0.33 325.06 -0.66 319.12 -1 313 C-2.216875 314.155 -3.43375 315.31 -4.6875 316.5 C-21.14922587 331.05536012 -41.36435512 337.71156695 -63.12890625 336.92285156 C-87.94955238 335.35727674 -109.44834993 324.74439004 -126 306 C-145.93652726 281.211663 -151.50971109 250.50815908 -148.77294922 219.42089844 C-146.37275445 199.17798593 -138.46603574 180.28369456 -125 165 C-124.30132813 164.15824219 -123.60265625 163.31648437 -122.8828125 162.44921875 C-110.17830506 147.55194045 -91.55498013 137.22031708 -72 135 C-46.70324198 133.04638035 -25.69058503 138.39065406 -6 155 C-4.35 156.65 -2.7 158.3 -1 160 C-0.505 80.8 -0.505 80.8 0 0 Z M-89 192 C-102.34027413 208.9348963 -105.13640987 228.38900678 -102.71582031 249.47558594 C-100.1950704 264.7284882 -92.64084094 278.52674437 -80.1875 287.75 C-67.15911258 296.4621125 -52.39700264 298.02074515 -37.14453125 295.31640625 C-23.08622796 291.26855548 -12.44798136 283.26945305 -5.30859375 270.48046875 C-4.87675781 269.66191406 -4.44492188 268.84335937 -4 268 C-3.61972656 267.31550781 -3.23945312 266.63101563 -2.84765625 265.92578125 C5.75460495 248.88356566 4.36543709 227.9152434 -0.84375 210.1171875 C-5.33137313 197.7762239 -14.60053018 186.76880733 -26.03515625 180.3203125 C-47.87464149 170.59469193 -72.64151674 173.95105345 -89 192 Z " fill="#9E9E9F" transform="translate(1327,365)"/>
<path d="M0 0 C1.2362915 0.00491455 2.47258301 0.0098291 3.74633789 0.01489258 C26.4618982 0.30632848 47.51601687 7.572855 64.25 23.3125 C87.96635923 48.119671 91.25 77.80191443 91.25 111.3125 C46.37 111.3125 1.49 111.3125 -44.75 111.3125 C-41.76715916 127.22098446 -39.05066319 141.18619889 -25.9375 151.6875 C-12.72417801 160.69658318 1.90892001 162.07979058 17.46875 159.8515625 C25.69255852 157.63946211 32.58442949 152.55915467 38.25 146.3125 C38.84296875 145.68859375 39.4359375 145.0646875 40.046875 144.421875 C45.52713926 138.51678406 49.93143966 132.1004499 54.25 125.3125 C57.89448462 126.0101026 60.79380971 127.53999305 64.046875 129.296875 C65.1709375 129.90273438 66.295 130.50859375 67.453125 131.1328125 C68.03642578 131.45024414 68.61972656 131.76767578 69.22070312 132.09472656 C70.97755772 133.05029347 72.73875712 133.99785818 74.5 134.9453125 C80.54849346 138.21812745 86.47123808 141.58334822 92.25 145.3125 C88.58770812 161.51685807 70.96037154 178.34149957 57.375 187.125 C32.82757406 202.3194406 3.86374545 205.8117965 -24.19140625 199.34375 C-38.33647847 195.72476222 -50.88136124 189.11748194 -61.75 179.3125 C-62.43320313 178.71050781 -63.11640625 178.10851562 -63.8203125 177.48828125 C-81.10984073 161.3174872 -90.99029312 136.50223996 -91.87255859 113.05541992 C-91.95716805 109.16159034 -91.99658957 105.26959291 -92 101.375 C-92.00067474 100.68341797 -92.00134949 99.99183594 -92.00204468 99.27929688 C-91.95896456 71.47611256 -84.45658303 46.3042048 -65.3125 25.6875 C-64.466875 24.90375 -63.62125 24.12 -62.75 23.3125 C-62.151875 22.72082031 -61.55375 22.12914062 -60.9375 21.51953125 C-44.27208199 5.68125715 -22.5490679 -0.10586417 0 0 Z M-32.75 55.3125 C-39.28138893 64.02844594 -39.28138893 64.02844594 -41.75 74.3125 C-13.37 74.3125 15.01 74.3125 44.25 74.3125 C42.46934006 63.62854038 37.40819678 55.47097827 29.25 48.3125 C9.69082953 35.39757707 -16.74835745 37.87981625 -32.75 55.3125 Z " fill="#B3B3B4" transform="translate(1509.75,499.6875)"/>
<path d="M0 0 C3.5024212 2.64817213 4.84385544 4.13199143 5.62890625 8.49609375 C5.04183662 43.34040305 -18.86854966 73.94823647 -40 100 C-40.43441406 100.54027832 -40.86882812 101.08055664 -41.31640625 101.63720703 C-58.59753424 122.98713792 -78.52356909 140.80478768 -101.53515625 155.68359375 C-102.09775146 156.06241699 -102.66034668 156.44124023 -103.23999023 156.83154297 C-104.44381916 157.63075579 -105.67192698 158.39424505 -106.91821289 159.12548828 C-114.03225829 163.70458393 -117.39568756 170.77633274 -121.3125 178 C-122.01989389 179.27171935 -122.72886854 180.54256073 -123.43945312 181.8125 C-126.41225489 187.15106136 -129.29458836 192.52005848 -132 198 C-130.87078125 197.00033203 -130.87078125 197.00033203 -129.71875 195.98046875 C-123.58995978 190.6327029 -117.31726705 185.62881804 -110.625 181 C-109.97208984 180.54391357 -109.31917969 180.08782715 -108.64648438 179.61791992 C-101.76418515 174.93841153 -95.50986939 171.84828835 -87 173 C-83.3322563 174.43520406 -82.27129265 175.5446159 -80.25 178.9375 C-78.59355485 182.99579062 -77.8720599 186.22946015 -77.93408203 190.60986328 C-77.94384064 191.51825958 -77.95359924 192.42665588 -77.96365356 193.36257935 C-77.97822601 194.33863129 -77.99279846 195.31468323 -78.0078125 196.3203125 C-78.02534068 198.40364086 -78.0422478 200.48697453 -78.05859375 202.5703125 C-78.08943975 205.84194743 -78.12483371 209.11331445 -78.17138672 212.38476562 C-78.21405454 215.55081377 -78.23726517 218.71655338 -78.2578125 221.8828125 C-78.27643341 222.84671906 -78.29505432 223.81062561 -78.3142395 224.80374146 C-78.34726428 233.66930483 -76.74836116 242.0322895 -71 249 C-65.23152749 252.55455982 -58.75370253 251.61392069 -52.390625 250.1953125 C-21.39624786 241.61675899 5.39411503 220.94226218 30 201 C30.55526367 200.55446777 31.11052734 200.10893555 31.68261719 199.64990234 C38.93956249 193.80438032 45.37859758 187.6934671 51.46484375 180.62890625 C57.23223467 174.64823739 63.15296914 171.96522197 71.375 171.625 C76.68811884 171.71910156 80.6561218 172.93674627 85 176 C85.72509766 176.82371094 85.72509766 176.82371094 86.46484375 177.6640625 C87.90884062 179.21515836 87.90884062 179.21515836 89.97265625 179.00390625 C90.66230469 178.85824219 91.35195313 178.71257812 92.0625 178.5625 C93.361875 178.376875 94.66125 178.19125 96 178 C98 180 98 180 98.45703125 182.85546875 C98.28120815 188.76771144 95.15219057 194.0629888 92.6875 199.3125 C84.89055995 214.46806229 84.89055995 214.46806229 84 231 C86.336649 233.56461476 87.66627827 233.97719914 91.14453125 234.21484375 C123.2528772 231.78705614 151.18624046 214.69314174 176.90795898 196.45703125 C179 195 179 195 182.02563477 193.24975586 C185.46488776 190.64836734 186.91875048 188.04095577 188.59375 184.19140625 C188.90211792 183.52155701 189.21048584 182.85170776 189.52819824 182.16156006 C190.18925199 180.72040003 190.84255526 179.2756641 191.48876953 177.82778931 C192.5174992 175.5232995 193.56630925 173.22895058 194.62109375 170.9362793 C196.06460126 167.79680981 197.50151474 164.65446365 198.93359375 161.50976562 C212.17082136 132.52607259 226.69230869 104.11374435 242.57861328 76.49609375 C244.30608256 73.46248916 245.9757539 70.39982397 247.64282227 67.33276367 C279.98260987 8.01952767 279.98260987 8.01952767 294 1 C297.84075128 0.20610169 301.07988551 0.44793131 304.5 2.5 C306.62338357 6.03897262 306.81884647 9.04942493 306 13 C302.36589989 21.58676751 295.07223647 26.88474219 287 31 C286.34 31 285.68 31 285 31 C284.74992188 31.70125 284.49984375 32.4025 284.2421875 33.125 C282.84187427 36.36597653 281.08894486 39.06487362 279.125 42 C272.96040048 51.40334838 267.49906964 61.1979322 262 71 C261.40348633 72.06009277 260.80697266 73.12018555 260.19238281 74.21240234 C252.09712314 88.6145323 244.2322607 103.11222982 236.66455078 117.7980957 C235.39124546 120.24740624 234.10818415 122.69035248 232.81591797 125.12963867 C226.79238502 136.50354844 220.93122082 147.95126467 215.17578125 159.46313477 C213.74132412 162.32983839 212.30045021 165.19325928 210.859375 168.05664062 C205.9153419 177.91572543 201.15319056 187.77868123 197 198 C200.33807014 195.40543074 203.39861187 192.71173217 206.36328125 189.69921875 C207.16830078 188.88646484 207.97332031 188.07371094 208.80273438 187.23632812 C210.4642839 185.54891791 212.12574352 183.86141917 213.78710938 182.17382812 C218.69024856 177.22380634 223.71012793 172.53111015 229 168 C230.14561141 166.97922983 231.28890341 165.95584972 232.4296875 164.9296875 C249.3725671 149.83129696 270.28083977 131.59025486 293.875 129.6875 C297.79783132 130.07978313 300.48815106 131.06161101 303.8125 133.125 C305.84404645 136.33270492 305.2962856 139.26680143 305 143 C303 145 303 145 299.625 145.3125 C296 145 296 145 294.125 143.4375 C291.28551076 141.51666904 289.06093012 141.66851075 285.73828125 142.1796875 C265.6401866 148.20051471 246.73236068 166.99830237 231.09375 180.37890625 C228.21490237 182.83508018 225.26878215 185.19996553 222.3125 187.5625 C217.68087609 191.32569442 213.50016697 195.39474207 209.3359375 199.6640625 C207.2739635 201.7260365 205.16651388 203.62339938 202.9375 205.5 C196.47941274 211.0523799 190.39911664 217.09732189 187 225 C187 225.99 187 226.98 187 228 C194.09745782 228.21307068 200.6473617 227.45753431 207.625 226.1875 C208.81029297 225.97230713 209.99558594 225.75711426 211.21679688 225.53540039 C249.88599067 218.2427376 288.11685242 208.06665795 325.80078125 196.796875 C326.6639093 196.53878052 327.52703735 196.28068604 328.4163208 196.01477051 C332.49711014 194.79120407 336.57383244 193.55593238 340.64501953 192.30078125 C341.74320259 191.96617889 341.74320259 191.96617889 342.86357117 191.62481689 C344.82193724 191.02793114 346.77812538 190.42391254 348.73413086 189.81933594 C351.66343763 189.08443622 354.00362558 188.81962813 357 189 C357.33 189.99 357.66 190.98 358 192 C305.23125215 210.39507992 250.02566199 227.31593759 194.77392578 236.22802734 C193.7373584 236.40414551 192.70079102 236.58026367 191.6328125 236.76171875 C190.73449707 236.90569092 189.83618164 237.04966309 188.91064453 237.19799805 C183.35311828 238.72932448 179.17794566 240.32214188 175.79614258 245.13916016 C175.19837918 246.38513927 174.62831289 247.64466839 174.08203125 248.9140625 C173.76007278 249.60738678 173.43811432 250.30071106 173.10639954 251.01504517 C172.04210038 253.3314806 171.01939783 255.6634859 170 258 C169.24441018 259.69387781 168.48837623 261.38755755 167.73193359 263.08105469 C165.74149369 267.57263707 163.79725211 272.08267608 161.87084961 276.60205078 C160.67870888 279.39560027 159.47554554 282.1842271 158.27148438 284.97265625 C157.49673544 286.78096721 156.72262389 288.5895514 155.94921875 290.3984375 C155.59607101 291.21533051 155.24292328 292.03222351 154.8790741 292.87387085 C152.7900495 297.80062747 151.17491476 302.65347038 149.90803528 307.85708618 C148.76119013 310.56357828 147.56055304 311.59251044 145 313 C144.01 312.67 143.02 312.34 142 312 C139.03099111 298.75829424 148.57664139 282.16414438 153.3125 269.9375 C154.11226561 267.86048056 154.91190597 265.78341289 155.71142578 263.70629883 C162.20831962 246.87101618 168.92392321 230.12764101 175.7752533 213.43382263 C177.88116243 208.30145083 179.95416658 203.15658925 182 198 C181.29359375 198.58265625 180.5871875 199.1653125 179.859375 199.765625 C170.15034128 207.52309415 159.79499517 213.8667139 149 220 C148.20255371 220.45439453 147.40510742 220.90878906 146.58349609 221.37695312 C129.12500962 231.21659813 106.09263076 243.67797717 85.37890625 240.68359375 C81.16047208 239.47140002 78.43252266 237.6777426 76 234 C71.93237436 223.4919671 75.09479874 213.01581921 79 203 C78.41210693 203.38220703 77.82421387 203.76441406 77.21850586 204.15820312 C57.4347476 216.98340302 57.4347476 216.98340302 48.625 221.875 C47.52414062 222.49117187 46.42328125 223.10734375 45.2890625 223.7421875 C41.14787341 225.32587264 38.41131144 225.33579326 34 225 C31.4375 223.5625 31.4375 223.5625 30 221 C29.78821767 215.68527198 31.26476559 210.97625075 33 206 C32.36835937 206.52207031 31.73671875 207.04414062 31.0859375 207.58203125 C-36.0830857 262.84645812 -36.0830857 262.84645812 -69.7578125 259.74609375 C-75.69201883 258.76296404 -80.40454844 257.1367886 -84.3671875 252.34765625 C-90.4939369 243.48380875 -91.44966401 233.48176779 -91.29296875 222.98828125 C-91.28872391 221.89404343 -91.28447906 220.7998056 -91.28010559 219.67240906 C-91.26347481 216.21884278 -91.2258522 212.7658863 -91.1875 209.3125 C-91.17243299 206.95378454 -91.15874814 204.59505982 -91.14648438 202.23632812 C-91.11362265 196.4906816 -91.06358182 190.74538439 -91 185 C-113.74477373 188.87216371 -134.06682227 218.73174795 -146.46679688 235.88867188 C-157.66254972 251.30600795 -157.66254972 251.30600795 -165.125 252.5 C-168 252 -168 252 -170.375 250.4375 C-172.56920516 247.14619226 -172.6694362 244.77396259 -172 241 C-169.68366406 232.31720778 -165.99137407 224.82919191 -161.4375 217.125 C-160.28918247 215.14912403 -159.142011 213.17258148 -157.99609375 211.1953125 C-157.46999512 210.29200195 -156.94389648 209.38869141 -156.40185547 208.45800781 C-154.81958749 205.68366542 -153.37289331 202.88258737 -152 200 C-152.65742187 200.52207031 -153.31484375 201.04414062 -153.9921875 201.58203125 C-177.44579056 219.72838267 -212.20784603 242.51129443 -243.0625 240.9375 C-247.58562556 240.29229933 -250.65229927 239.26400821 -254 236 C-258.94949062 227.4800753 -256.98221632 219.03530593 -254.8515625 209.953125 C-254.1149567 207.39865719 -253.22049961 205.34028755 -252 203 C-252.49177734 203.31638428 -252.98355469 203.63276855 -253.49023438 203.95874023 C-288.18069369 226.22006214 -288.18069369 226.22006214 -297 225 C-299.5 223.4375 -299.5 223.4375 -301 221 C-301.48293535 215.47685207 -300.32231838 211.27813753 -298.0625 206.3125 C-297.75038574 205.61697021 -297.43827148 204.92144043 -297.11669922 204.20483398 C-291.09895774 191.35035972 -281.3517662 178.52486877 -268 173 C-261.94798817 170.98266272 -255.28391751 171.00102247 -249.5 173.8125 C-247.45583303 174.94285504 -246.09114078 175.89639761 -244.54296875 177.65625 C-243.08384681 179.21138559 -243.08384681 179.21138559 -240.95703125 179.07421875 C-239.89548828 178.88279297 -239.89548828 178.88279297 -238.8125 178.6875 C-237.554375 178.460625 -236.29625 178.23375 -235 178 C-232.65571861 181.51642209 -232.64747431 182.8619055 -233 187 C-233.9621582 189.72558594 -233.9621582 189.72558594 -235.30078125 192.484375 C-235.78353516 193.50273438 -236.26628906 194.52109375 -236.76367188 195.5703125 C-237.27478516 196.61960937 -237.78589844 197.66890625 -238.3125 198.75 C-245.04072258 212.00706889 -245.04072258 212.00706889 -247.25 226.5 C-247.23453125 227.3146875 -247.2190625 228.129375 -247.203125 228.96875 C-247.11507271 231.06651736 -247.11507271 231.06651736 -246 233 C-221.92902515 238.58790488 -192.39415828 221.10062891 -172.95117188 209.12158203 C-166.15091168 204.76901259 -159.44484074 200.26165146 -152.93457031 195.484375 C-148.18515186 192 -148.18515186 192 -146 192 C-145.73840088 191.29560791 -145.47680176 190.59121582 -145.20727539 189.86547852 C-143.91227592 186.79178613 -142.37278064 184.02834092 -140.68359375 181.15234375 C-140.35548203 180.59206482 -140.0273703 180.03178589 -139.6893158 179.45452881 C-138.60921399 177.61323297 -137.52367019 175.77522177 -136.4375 173.9375 C-135.67330634 172.63974955 -134.90914674 171.34197904 -134.14501953 170.04418945 C-121.43326513 148.4908779 -108.36747888 127.15285806 -95 106 C-94.34112793 104.95682617 -93.68225586 103.91365234 -93.00341797 102.83886719 C-24.17593295 -5.93328757 -24.17593295 -5.93328757 0 0 Z M-21.41552734 25.41064453 C-30.122767 34.28913543 -37.62270452 44.0098664 -45 54 C-45.52706543 54.70753418 -46.05413086 55.41506836 -46.59716797 56.14404297 C-63.78583809 79.25801643 -78.94274511 103.8534092 -93.5 128.6875 C-94.07564697 129.66710693 -94.65129395 130.64671387 -95.24438477 131.65600586 C-98.73890494 137.66091294 -101.97606744 143.74479413 -105 150 C-87.7568145 146.30321629 -67.79767132 124.4322029 -56.84375 111.21484375 C-55.31451874 109.3778223 -53.75242432 107.59457331 -52.15625 105.81640625 C-33.4432637 84.85535742 0.19013764 44.91892265 -0.875 14.5625 C-0.91625 13.386875 -0.9575 12.21125 -1 11 C-8.82338978 11 -16.25822729 20.2711344 -21.41552734 25.41064453 Z M-281.31640625 202.98828125 C-283.35760343 206.27340611 -283.35760343 206.27340611 -284 210 C-279.81223886 208.49710254 -276.16000818 206.40163491 -272.4375 204 C-271.83341309 203.61207275 -271.22932617 203.22414551 -270.60693359 202.82446289 C-264.32218401 198.69840244 -258.64717289 193.95420479 -253 189 C-253.33 188.01 -253.66 187.02 -254 186 C-265.06783076 180.46608462 -275.84952368 194.73117969 -281.31640625 202.98828125 Z M63 189 C62.45472656 189.40089844 61.90945313 189.80179688 61.34765625 190.21484375 C55.32077062 194.92975427 48.27774905 202.22398434 47 210 C52.36548658 208.54806429 56.32831814 206.02940841 60.8125 202.875 C61.51375 202.38797607 62.215 201.90095215 62.9375 201.39916992 C68.29515837 197.62417473 73.28984444 193.56623414 78 189 C77.67 188.01 77.34 187.02 77 186 C71.45741023 183.22870511 67.5213981 185.49360963 63 189 Z " fill="#888889" transform="translate(719,387)"/>
<path d="M0 0 C16.5 0 33 0 50 0 C57.83704003 16.64438026 65.62979145 33.29915326 73.21612549 50.05877686 C78.73604443 62.25169405 84.32364655 74.41255588 89.9375 86.5625 C90.34279938 87.4397171 90.74809875 88.3169342 91.16567993 89.22073364 C93.44246811 94.14776619 95.72063328 99.07415985 98 104 C100.47374156 101.52625844 101.41042065 99.15701702 102.84375 95.95703125 C103.26522812 95.02225197 103.26522812 95.02225197 103.69522095 94.06858826 C104.3093395 92.70556777 104.92144295 91.34163803 105.53179932 89.97692871 C107.20713212 86.23169441 108.89739601 82.49319925 110.5859375 78.75390625 C110.94243378 77.96345917 111.29893005 77.17301208 111.66622925 76.35861206 C115.75935997 67.29477193 119.94411606 58.27359548 124.125 49.25 C130.25397352 36.01647249 136.30188064 22.7507283 142.20556641 9.41503906 C142.94105713 7.75939941 142.94105713 7.75939941 143.69140625 6.0703125 C144.11623291 5.10883301 144.54105957 4.14735352 144.97875977 3.15673828 C146 1 146 1 147 0 C148.56547048 -0.09326716 150.13512772 -0.11745582 151.70336914 -0.11352539 C152.70433121 -0.11344986 153.70529327 -0.11337433 154.73658752 -0.11329651 C155.8251152 -0.10813522 156.91364288 -0.10297394 158.03515625 -0.09765625 C159.6977372 -0.09553383 159.6977372 -0.09553383 161.39390564 -0.09336853 C164.95013069 -0.08775033 168.50629383 -0.07519475 172.0625 -0.0625 C174.46679597 -0.05748734 176.87109292 -0.05292403 179.27539062 -0.04882812 C185.18361504 -0.03777499 191.0918031 -0.02101917 197 0 C195.59490683 4.54069683 193.78181943 8.75813144 191.68359375 13.01171875 C191.35557266 13.68439285 191.02755157 14.35706696 190.68959045 15.05012512 C189.60897075 17.26426818 188.52320378 19.47584611 187.4375 21.6875 C186.67148027 23.2550155 185.90586228 24.82272737 185.140625 26.390625 C183.55087189 29.64708473 181.95939504 32.90269341 180.36669922 36.15771484 C177.07959313 42.87891077 173.81353038 49.61030192 170.5473938 56.34170532 C168.78260282 59.97829262 167.01621489 63.61410411 165.25 67.25 C164.54165914 68.70832968 163.83332581 70.16666301 163.125 71.625 C158.87499997 80.37500007 158.87499997 80.37500007 157.81246948 82.56256104 C157.10423599 84.02069 156.39600438 85.47881989 155.68777466 86.93695068 C153.91542915 90.58591829 152.14305081 94.23486995 150.37060547 97.88378906 C147.20115841 104.40878449 144.03191767 110.93387959 140.86395264 117.45959473 C139.46760492 120.3359126 138.0711088 123.2121584 136.67456055 126.08837891 C135.97644304 127.52618594 135.27836344 128.96401137 134.58032227 130.40185547 C130.40280133 139.00624343 126.21796849 147.60701539 122.0234375 156.203125 C121.1775704 157.93717388 120.33170451 159.67122336 119.48583984 161.40527344 C117.88583377 164.68517321 116.28441636 167.96437831 114.68212891 171.24316406 C109.37099364 182.1229407 104.16154262 193.04849999 99 204 C98.34 204 97.68 204 97 204 C81.56822642 172.23109884 81.56822642 172.23109884 75.5 159.5 C71.04140535 150.14643034 66.52599669 140.8210726 62 131.5 C57.47400309 122.17892694 52.9586525 112.85354236 48.5 103.5 C44.06113792 94.18863772 39.56755126 84.90445341 35.0625 75.625 C29.83657127 64.86039922 24.62344179 54.09012376 19.46191406 43.29443359 C17.05051222 38.25458723 14.62486108 33.22234851 12.16973877 28.20367432 C10.86611492 25.53841428 9.56652031 22.87119679 8.26690674 20.20397949 C7.63696986 18.91429481 7.00497144 17.62561478 6.37078857 16.3380127 C5.48810337 14.54559311 4.61303892 12.7494268 3.73828125 10.953125 C2.98091675 9.40866699 2.98091675 9.40866699 2.20825195 7.83300781 C1 5 1 5 0 0 Z " fill="#AAAAAB" transform="translate(1616,505)"/>
<path d="M0 0 C5.5524715 5.07015936 8.62825682 10.35464411 9.47265625 17.8671875 C9.79030131 27.3862927 8.35718888 34.24367378 1.84375 41.30859375 C-4.5868942 47.19311105 -11.18751479 49.59115784 -19.90625 49.49609375 C-28.14931554 48.84386466 -34.64112636 44.933066 -40.28125 38.99609375 C-45.15364485 31.50010167 -47.28141722 24.16215858 -45.4453125 15.26171875 C-43.02774763 7.01355624 -38.51598105 0.69005479 -30.96484375 -3.53515625 C-20.4848609 -8.46691288 -9.08608303 -7.1683237 0 0 Z " fill="#E1E1E1" transform="translate(1115.90625,652.50390625)"/>
</svg>
